<svg xmlns="http://www.w3.org/2000/svg" xmlns:xlink="http://www.w3.org/1999/xlink" version="1.1" class="" pageAlignment="none" x="0px" y="0px" width="325px" height="280px" viewBox="0 0 325 280" enable-background="new 0 0 325 280" xml:space="preserve"><defs/><g type="LAYER" name="workspace" id="workspace" locked="true"/><g type="LAYER" name="Layer 01" id="Layer 01"><path transform="matrix(0.6846296091075306 0.7288911429927448 -0.7288911429927448 0.6846296091075306 98.49276679844209 0.29612720016730165)" width="308.53140124634496" height="286.10480505930184" stroke-width="0.35360760195287705" stroke-miterlimit="3" stroke="none" fill="#000000" d="M97.71122254441775,32.53779200037559 L97.71122254441775,91.53488738567177 Q216.7265533503613,76.62982034374141 126.34439902886402,61.142444308397955 C35.96224470736672,45.655068273054496 241.99268327123787,121.21221415524502 150.51526229495505,71.15407261620584 C59.037841318672236,21.09593107716654 320.8268834621805,166.2645415403802 204.0630209152181,120.49709784754444 C87.29915836825558,74.72965415470861 -19.052640002544706,43.979652923584524 117.79163202701648,45.409885538985634 C254.63590405657783,46.84011815438663 314.5052730695106,-21.095931077166483 210.756490742751,48.27035076978785 C107.00770841599137,117.63663261674228 25.570492181007808,181.99710030979273 78.74639136640803,124.0726793860473 C131.92229055180815,66.1482584623019 163.90220195002075,25.029070769519706 173.57054725645708,81.88081723171422 C183.23889256289362,138.73256369390876 189.5605029555635,157.6831458479736 158.69616986193978,146.95640123246523 C127.83183676831584,136.22965661695682 -34.670736266788026,146.95640123246525 62.01271679757576,79.73546830861261 C158.69616986193978,12.514535384759824 114.44489711324991,-27.1744196926212 190.30422182528923,37.18604800042914 C266.16354653732867,101.54651569347959 314.87713250437366,86.88663138561805 260.58565501438477,117.27907446289203 C206.29417752439576,147.67151754016575 -38.39137412674711,250.51182832816104 154.6046943227825,145.81550801047158 C347.60076277231235,41.11918769278219 336.4449797264241,-6.793604923155385 239.38966722719726,42.5494203081833 C142.33435472797032,91.89244553952204 117.04791315729074,163.76163446342846 106.63584898112833,99.0436086165277 C96.22378480496604,34.32558276962692 25.94235161587079,-170.55523938658365 78.3745319315451,21.453489231016874 C130.80671224721937,213.4622178486174 85.43986119394083,283.5436160032723 178.77657934453828,179.13663507899042 C272.11329749513584,74.7296541547085 430.89727618161055,-36.82848984657886 274.71631353917644,32.53779200037553 "/><path width="5.155979202772983" height="88.68284228769494" stroke-miterlimit="3" stroke="none" fill="#000000" d="M67.1143847487001,302.14038128249564 L69.39535493098062,341.37306841772033 L69.39535493098062,341.37306841772033 L72.27036395147309,390.8232235701906 "/><text type="textBox" transform="matrix(1 0 0 1 96.23050259965075 181.61178509532064)" width="206.2391681109185" height="25" stroke-miterlimit="3" stroke="none" fill="#000000" font-family="Arial" font-weight="bold" font-size="22" text-align="left" text-anchor="start"><tspan x="0" y="22"><![CDATA[DC]]></tspan></text></g></svg>
